<svg xmlns="http://www.w3.org/2000/svg" width="1100" height="620" viewBox="0 0 1100 620">
<rect width="100%" height="100%" fill="white"/>
<style>text{font-family:Arial,sans-serif;} .small{font-size:14px;} .axis{font-size:16px;} .title{font-size:22px;font-weight:bold;} .legend{font-size:14px;}</style>
<text x="550.0" y="34" text-anchor="middle" class="title">Beardplot: Observed vs Newtonian, MOND, and HMG circular speeds</text>
<line x1="90" y1="465.2941176470588" x2="1060" y2="465.2941176470588" stroke="#dddddd" stroke-width="1"/>
<text x="78" y="470.2941176470588" text-anchor="end" class="axis">25</text>
<line x1="90" y1="324.11764705882354" x2="1060" y2="324.11764705882354" stroke="#dddddd" stroke-width="1"/>
<text x="78" y="329.11764705882354" text-anchor="end" class="axis">50</text>
<line x1="90" y1="182.94117647058826" x2="1060" y2="182.94117647058826" stroke="#dddddd" stroke-width="1"/>
<text x="78" y="187.94117647058826" text-anchor="end" class="axis">75</text>
<line x1="170.83333333333331" y1="70" x2="170.83333333333331" y2="550" stroke="#e6e6e6" stroke-width="1"/>
<text x="170.83333333333331" y="578" text-anchor="middle" class="axis">114905</text>
<line x1="332.5" y1="70" x2="332.5" y2="550" stroke="#e6e6e6" stroke-width="1"/>
<text x="332.5" y="578" text-anchor="middle" class="axis">122966</text>
<line x1="494.16666666666663" y1="70" x2="494.16666666666663" y2="550" stroke="#e6e6e6" stroke-width="1"/>
<text x="494.16666666666663" y="578" text-anchor="middle" class="axis">219533</text>
<line x1="655.8333333333333" y1="70" x2="655.8333333333333" y2="550" stroke="#e6e6e6" stroke-width="1"/>
<text x="655.8333333333333" y="578" text-anchor="middle" class="axis">248945</text>
<line x1="817.5" y1="70" x2="817.5" y2="550" stroke="#e6e6e6" stroke-width="1"/>
<text x="817.5" y="578" text-anchor="middle" class="axis">334315</text>
<line x1="979.1666666666666" y1="70" x2="979.1666666666666" y2="550" stroke="#e6e6e6" stroke-width="1"/>
<text x="979.1666666666666" y="578" text-anchor="middle" class="axis">749290</text>
<line x1="90" y1="550" x2="1060" y2="550" stroke="black" stroke-width="1.5"/>
<line x1="90" y1="70" x2="90" y2="550" stroke="black" stroke-width="1.5"/>
<text x="550.0" y="602" text-anchor="middle" class="axis">UDG (AGC)</text>
<g transform="translate(24 310.0) rotate(-90)"><text text-anchor="middle" class="axis">Circular speed at Rsys (km s^-1)</text></g>
<circle cx="340.0" cy="58" r="5" fill="#F8766D"/>
<text x="352.0" y="63" class="legend">Observed</text>
<circle cx="450.0" cy="58" r="5" fill="#7CAE00"/>
<text x="462.0" y="63" class="legend">Newtonian</text>
<circle cx="560.0" cy="58" r="5" fill="#00BFC4"/>
<text x="572.0" y="63" class="legend">MOND</text>
<circle cx="670.0" cy="58" r="5" fill="#C77CFF"/>
<text x="682.0" y="63" class="legend">HMG</text>
<line x1="140.27833333333334" y1="454.0" x2="140.27833333333334" y2="510.4705882352941" stroke="#F8766D" stroke-width="3"/>
<line x1="134.27833333333334" y1="454.0" x2="146.27833333333334" y2="454.0" stroke="#F8766D" stroke-width="3"/>
<line x1="134.27833333333334" y1="510.4705882352941" x2="146.27833333333334" y2="510.4705882352941" stroke="#F8766D" stroke-width="3"/>
<circle cx="140.27833333333334" cy="476.5882352941176" r="5" fill="#F8766D"/>
<line x1="160.6483333333333" y1="397.5294117647059" x2="160.6483333333333" y2="476.5882352941176" stroke="#7CAE00" stroke-width="3"/>
<line x1="154.6483333333333" y1="397.5294117647059" x2="166.6483333333333" y2="397.5294117647059" stroke="#7CAE00" stroke-width="3"/>
<line x1="154.6483333333333" y1="476.5882352941176" x2="166.6483333333333" y2="476.5882352941176" stroke="#7CAE00" stroke-width="3"/>
<circle cx="160.6483333333333" cy="442.70588235294116" r="5" fill="#7CAE00"/>
<line x1="181.01833333333332" y1="132.90506245867587" x2="181.01833333333332" y2="232.57565069397003" stroke="#00BFC4" stroke-width="3"/>
<line x1="175.01833333333332" y1="132.90506245867587" x2="187.01833333333332" y2="132.90506245867587" stroke="#00BFC4" stroke-width="3"/>
<line x1="175.01833333333332" y1="232.57565069397003" x2="187.01833333333332" y2="232.57565069397003" stroke="#00BFC4" stroke-width="3"/>
<circle cx="181.01833333333332" cy="186.5521212822053" r="5" fill="#00BFC4"/>
<line x1="201.38833333333332" y1="379.1908384984319" x2="201.38833333333332" y2="434.24966202784367" stroke="#C77CFF" stroke-width="3"/>
<line x1="195.38833333333332" y1="379.1908384984319" x2="207.38833333333332" y2="379.1908384984319" stroke="#C77CFF" stroke-width="3"/>
<line x1="195.38833333333332" y1="434.24966202784367" x2="207.38833333333332" y2="434.24966202784367" stroke="#C77CFF" stroke-width="3"/>
<circle cx="201.38833333333332" cy="411.4920149690202" r="5" fill="#C77CFF"/>
<line x1="301.94499999999994" y1="369.29411764705884" x2="301.94499999999994" y2="431.4117647058823" stroke="#F8766D" stroke-width="3"/>
<line x1="295.94499999999994" y1="369.29411764705884" x2="307.94499999999994" y2="369.29411764705884" stroke="#F8766D" stroke-width="3"/>
<line x1="295.94499999999994" y1="431.4117647058823" x2="307.94499999999994" y2="431.4117647058823" stroke="#F8766D" stroke-width="3"/>
<circle cx="301.94499999999994" cy="397.5294117647059" r="5" fill="#F8766D"/>
<line x1="322.315" y1="442.70588235294116" x2="322.315" y2="487.88235294117646" stroke="#7CAE00" stroke-width="3"/>
<line x1="316.315" y1="442.70588235294116" x2="328.315" y2="442.70588235294116" stroke="#7CAE00" stroke-width="3"/>
<line x1="316.315" y1="487.88235294117646" x2="328.315" y2="487.88235294117646" stroke="#7CAE00" stroke-width="3"/>
<circle cx="322.315" cy="465.2941176470588" r="5" fill="#7CAE00"/>
<line x1="342.68499999999995" y1="156.7600441601991" x2="342.68499999999995" y2="223.11298533666974" stroke="#00BFC4" stroke-width="3"/>
<line x1="336.68499999999995" y1="156.7600441601991" x2="348.68499999999995" y2="156.7600441601991" stroke="#00BFC4" stroke-width="3"/>
<line x1="336.68499999999995" y1="223.11298533666974" x2="348.68499999999995" y2="223.11298533666974" stroke="#00BFC4" stroke-width="3"/>
<circle cx="342.68499999999995" cy="191.03769121902272" r="5" fill="#00BFC4"/>
<line x1="363.055" y1="393.6641853391206" x2="363.055" y2="420.8265382802971" stroke="#C77CFF" stroke-width="3"/>
<line x1="357.055" y1="393.6641853391206" x2="369.055" y2="393.6641853391206" stroke="#C77CFF" stroke-width="3"/>
<line x1="357.055" y1="420.8265382802971" x2="369.055" y2="420.8265382802971" stroke="#C77CFF" stroke-width="3"/>
<circle cx="363.055" cy="408.57242063323827" r="5" fill="#C77CFF"/>
<line x1="463.6116666666666" y1="363.64705882352945" x2="463.6116666666666" y2="425.7647058823529" stroke="#F8766D" stroke-width="3"/>
<line x1="457.6116666666666" y1="363.64705882352945" x2="469.6116666666666" y2="363.64705882352945" stroke="#F8766D" stroke-width="3"/>
<line x1="457.6116666666666" y1="425.7647058823529" x2="469.6116666666666" y2="425.7647058823529" stroke="#F8766D" stroke-width="3"/>
<circle cx="463.6116666666666" cy="397.5294117647059" r="5" fill="#F8766D"/>
<line x1="483.9816666666666" y1="374.94117647058823" x2="483.9816666666666" y2="465.2941176470588" stroke="#7CAE00" stroke-width="3"/>
<line x1="477.9816666666666" y1="374.94117647058823" x2="489.9816666666666" y2="374.94117647058823" stroke="#7CAE00" stroke-width="3"/>
<line x1="477.9816666666666" y1="465.2941176470588" x2="489.9816666666666" y2="465.2941176470588" stroke="#7CAE00" stroke-width="3"/>
<circle cx="483.9816666666666" cy="425.7647058823529" r="5" fill="#7CAE00"/>
<line x1="504.3516666666667" y1="81.4001259367731" x2="504.3516666666667" y2="206.76483181912604" stroke="#00BFC4" stroke-width="3"/>
<line x1="498.3516666666667" y1="81.4001259367731" x2="510.3516666666667" y2="81.4001259367731" stroke="#00BFC4" stroke-width="3"/>
<line x1="498.3516666666667" y1="206.76483181912604" x2="510.3516666666667" y2="206.76483181912604" stroke="#00BFC4" stroke-width="3"/>
<circle cx="504.3516666666667" cy="149.16483181912605" r="5" fill="#00BFC4"/>
<line x1="524.7216666666666" y1="348.6729016107305" x2="524.7216666666666" y2="415.53407808131874" stroke="#C77CFF" stroke-width="3"/>
<line x1="518.7216666666666" y1="348.6729016107305" x2="530.7216666666666" y2="348.6729016107305" stroke="#C77CFF" stroke-width="3"/>
<line x1="518.7216666666666" y1="415.53407808131874" x2="530.7216666666666" y2="415.53407808131874" stroke="#C77CFF" stroke-width="3"/>
<circle cx="524.7216666666666" cy="388.48466631661285" r="5" fill="#C77CFF"/>
<line x1="625.2783333333333" y1="437.0588235294117" x2="625.2783333333333" y2="470.94117647058823" stroke="#F8766D" stroke-width="3"/>
<line x1="619.2783333333333" y1="437.0588235294117" x2="631.2783333333333" y2="437.0588235294117" stroke="#F8766D" stroke-width="3"/>
<line x1="619.2783333333333" y1="470.94117647058823" x2="631.2783333333333" y2="470.94117647058823" stroke="#F8766D" stroke-width="3"/>
<circle cx="625.2783333333333" cy="454.0" r="5" fill="#F8766D"/>
<line x1="645.6483333333333" y1="437.0588235294117" x2="645.6483333333333" y2="499.1764705882353" stroke="#7CAE00" stroke-width="3"/>
<line x1="639.6483333333333" y1="437.0588235294117" x2="651.6483333333333" y2="437.0588235294117" stroke="#7CAE00" stroke-width="3"/>
<line x1="639.6483333333333" y1="499.1764705882353" x2="651.6483333333333" y2="499.1764705882353" stroke="#7CAE00" stroke-width="3"/>
<circle cx="645.6483333333333" cy="470.94117647058823" r="5" fill="#7CAE00"/>
<line x1="666.0183333333333" y1="180.23671355835964" x2="666.0183333333333" y2="268.21789002894786" stroke="#00BFC4" stroke-width="3"/>
<line x1="660.0183333333333" y1="180.23671355835964" x2="672.0183333333333" y2="180.23671355835964" stroke="#00BFC4" stroke-width="3"/>
<line x1="660.0183333333333" y1="268.21789002894786" x2="672.0183333333333" y2="268.21789002894786" stroke="#00BFC4" stroke-width="3"/>
<circle cx="666.0183333333333" cy="226.9943606171832" r="5" fill="#00BFC4"/>
<line x1="686.3883333333333" y1="405.36464121835166" x2="686.3883333333333" y2="443.99052357129284" stroke="#C77CFF" stroke-width="3"/>
<line x1="680.3883333333333" y1="405.36464121835166" x2="692.3883333333333" y2="405.36464121835166" stroke="#C77CFF" stroke-width="3"/>
<line x1="680.3883333333333" y1="443.99052357129284" x2="692.3883333333333" y2="443.99052357129284" stroke="#C77CFF" stroke-width="3"/>
<circle cx="686.3883333333333" cy="427.7269941595281" r="5" fill="#C77CFF"/>
<line x1="786.9449999999999" y1="437.0588235294117" x2="786.9449999999999" y2="493.52941176470586" stroke="#F8766D" stroke-width="3"/>
<line x1="780.9449999999999" y1="437.0588235294117" x2="792.9449999999999" y2="437.0588235294117" stroke="#F8766D" stroke-width="3"/>
<line x1="780.9449999999999" y1="493.52941176470586" x2="792.9449999999999" y2="493.52941176470586" stroke="#F8766D" stroke-width="3"/>
<circle cx="786.9449999999999" cy="465.2941176470588" r="5" fill="#F8766D"/>
<line x1="807.315" y1="403.1764705882353" x2="807.315" y2="465.2941176470588" stroke="#7CAE00" stroke-width="3"/>
<line x1="801.315" y1="403.1764705882353" x2="813.315" y2="403.1764705882353" stroke="#7CAE00" stroke-width="3"/>
<line x1="801.315" y1="465.2941176470588" x2="813.315" y2="465.2941176470588" stroke="#7CAE00" stroke-width="3"/>
<circle cx="807.315" cy="437.0588235294117" r="5" fill="#7CAE00"/>
<line x1="827.685" y1="130.60219895734656" x2="827.685" y2="216.71984601617015" stroke="#00BFC4" stroke-width="3"/>
<line x1="821.685" y1="130.60219895734656" x2="833.685" y2="130.60219895734656" stroke="#00BFC4" stroke-width="3"/>
<line x1="821.685" y1="216.71984601617015" x2="833.685" y2="216.71984601617015" stroke="#00BFC4" stroke-width="3"/>
<circle cx="827.685" cy="176.96455189852307" r="5" fill="#00BFC4"/>
<line x1="848.055" y1="377.3511299029407" x2="848.055" y2="424.10877696176425" stroke="#C77CFF" stroke-width="3"/>
<line x1="842.055" y1="377.3511299029407" x2="854.055" y2="377.3511299029407" stroke="#C77CFF" stroke-width="3"/>
<line x1="842.055" y1="424.10877696176425" x2="854.055" y2="424.10877696176425" stroke="#C77CFF" stroke-width="3"/>
<circle cx="848.055" cy="404.4570122558819" r="5" fill="#C77CFF"/>
<line x1="948.6116666666666" y1="425.7647058823529" x2="948.6116666666666" y2="493.52941176470586" stroke="#F8766D" stroke-width="3"/>
<line x1="942.6116666666666" y1="425.7647058823529" x2="954.6116666666666" y2="425.7647058823529" stroke="#F8766D" stroke-width="3"/>
<line x1="942.6116666666666" y1="493.52941176470586" x2="954.6116666666666" y2="493.52941176470586" stroke="#F8766D" stroke-width="3"/>
<circle cx="948.6116666666666" cy="459.6470588235294" r="5" fill="#F8766D"/>
<line x1="968.9816666666667" y1="420.11764705882354" x2="968.9816666666667" y2="482.2352941176471" stroke="#7CAE00" stroke-width="3"/>
<line x1="962.9816666666667" y1="420.11764705882354" x2="974.9816666666667" y2="420.11764705882354" stroke="#7CAE00" stroke-width="3"/>
<line x1="962.9816666666667" y1="482.2352941176471" x2="974.9816666666667" y2="482.2352941176471" stroke="#7CAE00" stroke-width="3"/>
<circle cx="968.9816666666667" cy="454.0" r="5" fill="#7CAE00"/>
<line x1="989.3516666666666" y1="158.38274607096878" x2="989.3516666666666" y2="234.1098048944982" stroke="#00BFC4" stroke-width="3"/>
<line x1="983.3516666666666" y1="158.38274607096878" x2="995.3516666666666" y2="158.38274607096878" stroke="#00BFC4" stroke-width="3"/>
<line x1="983.3516666666666" y1="234.1098048944982" x2="995.3516666666666" y2="234.1098048944982" stroke="#00BFC4" stroke-width="3"/>
<circle cx="989.3516666666666" cy="197.7427460709688" r="5" fill="#00BFC4"/>
<line x1="1009.7216666666666" y1="395.60823197120607" x2="1009.7216666666666" y2="433.4999966770884" stroke="#C77CFF" stroke-width="3"/>
<line x1="1003.7216666666666" y1="395.60823197120607" x2="1015.7216666666666" y2="395.60823197120607" stroke="#C77CFF" stroke-width="3"/>
<line x1="1003.7216666666666" y1="433.4999966770884" x2="1015.7216666666666" y2="433.4999966770884" stroke="#C77CFF" stroke-width="3"/>
<circle cx="1009.7216666666666" cy="416.78470255944137" r="5" fill="#C77CFF"/>
</svg>